<svg width="2490" height="1567" viewBox="0 0 2490 1567" fill="none" xmlns="http://www.w3.org/2000/svg">
<rect width="2490" height="1565" fill="#353535"/>
<rect x="428" width="1634" height="1548.18" fill="black"/>
<path d="M489 1547.13C489 1483.17 546.266 1401.53 570.7 1347.78C627.8 1222.16 674.219 1090.9 736.916 968.145C798.983 846.623 886.048 779.717 1018.64 766.815C1131.04 755.877 1237.05 761 1341.05 809.581C1419.75 846.34 1488.45 895.873 1556.42 950.38C1598.83 984.397 1636.18 1015.77 1672.24 1055.65C1704.99 1091.88 1725.18 1135.53 1746.74 1180C1798.09 1285.94 1830 1398.26 1830 1517.52" stroke="white" stroke-width="3" stroke-linecap="round"/>
<path d="M681 1553.44C684.282 1518.93 712.365 1475.39 727.322 1445.48C755.966 1388.2 779.656 1328.03 810.576 1272.03C849.634 1201.29 919.721 1157.7 990.855 1128.2C1043.7 1106.28 1101.46 1078.91 1159.87 1085.74C1221.16 1092.9 1287.43 1116.62 1342.65 1144.65C1437.04 1192.57 1555.06 1229.01 1596.17 1340.16C1620.64 1406.34 1628.72 1480.37 1650 1547.51" stroke="white" stroke-width="3" stroke-linecap="round"/>
<path d="M873 1565C873 1531.42 898.182 1490.74 915.567 1464.46C949.809 1412.69 990.58 1362.5 1042.02 1328.76C1111.53 1283.15 1197.77 1259.04 1274.26 1292.94C1346.08 1324.78 1399.55 1384.38 1453.29 1440.8C1470.02 1458.36 1475.3 1478.5 1487.1 1498.63C1492.9 1508.53 1496.54 1531.51 1504 1535.43" stroke="white" stroke-width="3" stroke-linecap="round"/>
<path d="M1064 1553.08C1107.18 1502.37 1139.94 1473.23 1202.15 1487.84C1235.91 1495.77 1257.29 1534.2 1267 1565" stroke="white" stroke-width="3" stroke-linecap="round"/>
</svg>
